<svg xmlns="http://www.w3.org/2000/svg" width="48" height="48" viewBox="0 0 48 48" fill="none" class="fusion-extension-loaded">
<path d="M37.6 0H10.4C4.65624 0 0 4.65624 0 10.4V37.6C0 43.3438 4.65624 48 10.4 48H37.6C43.3438 48 48 43.3438 48 37.6V10.4C48 4.65624 43.3438 0 37.6 0Z" fill="#03A9F4"/>
<path d="M30.8805 13.6731C31.7201 12.834 31.5393 11.4239 30.4306 10.9992C28.8834 10.4067 27.2035 10.082 25.4478 10.082C17.7554 10.082 11.5195 16.3142 11.5195 24.002C11.5195 31.6898 17.7554 37.922 25.4478 37.922C27.1927 37.922 28.8627 37.6014 30.4019 37.0158C31.5136 36.5928 31.6961 35.18 30.855 34.3394C30.31 33.7947 29.4851 33.6676 28.7537 33.9106C27.717 34.255 26.6082 34.4415 25.4559 34.4415C19.6866 34.4415 15.0097 29.7673 15.0097 24.0015C15.0097 18.2356 19.6866 13.5615 25.4559 13.5615C26.6166 13.5615 27.7331 13.7507 28.7761 14.0999C29.5081 14.345 30.3346 14.2186 30.8805 13.6731Z" fill="white"/>
<path d="M27.4276 24.082C27.4276 25.0484 26.6441 25.8319 25.6777 25.8319C24.7112 25.8319 23.9277 25.0484 23.9277 24.082C23.9277 23.1155 24.7112 22.332 25.6777 22.332C26.6441 22.332 27.4276 23.1155 27.4276 24.082Z" fill="white"/>
<path d="M28.5346 21.3947C27.9077 20.7671 27.9077 19.7496 28.5346 19.122L33.7558 13.8945C34.3826 13.2669 35.399 13.2669 36.0258 13.8945C36.6527 14.5222 36.6527 15.5397 36.0258 16.1673L30.8047 21.3947C30.1778 22.0224 29.1615 22.0224 28.5346 21.3947Z" fill="white"/>
<path d="M28.5346 26.6113C27.9077 27.2389 27.9077 28.2565 28.5346 28.8841L33.7558 34.1115C34.3826 34.7391 35.399 34.7391 36.0258 34.1115C36.6527 33.4839 36.6527 32.4663 36.0258 31.8387L30.8047 26.6113C30.1778 25.9837 29.1615 25.9837 28.5346 26.6113Z" fill="white"/>
</svg>
